<svg width="28" height="28" viewBox="0 0 28 28" fill="none" xmlns="http://www.w3.org/2000/svg">
<path d="M15.8873 24.9283C15.3814 25.402 14.7051 25.6668 14.0013 25.6668C13.2974 25.6668 12.6212 25.402 12.1152 24.9283C7.48186 20.5638 1.27255 15.6882 4.30065 8.60977C5.9379 4.78252 9.86806 2.3335 14.0013 2.3335C18.1345 2.3335 22.0647 4.78252 23.702 8.60977C26.7262 15.6793 20.5322 20.5789 15.8873 24.9283Z" stroke="#FDB022" stroke-width="1.75"/>
<path d="M18.0834 12.8333C18.0834 15.0885 16.2552 16.9167 14 16.9167C11.7449 16.9167 9.91669 15.0885 9.91669 12.8333C9.91669 10.5782 11.7449 8.75 14 8.75C16.2552 8.75 18.0834 10.5782 18.0834 12.8333Z" stroke="#FDB022" stroke-width="1.75"/>
</svg>
