<svg width="28" height="28" viewBox="0 0 28 28" fill="none" xmlns="http://www.w3.org/2000/svg">
<path d="M2.33331 7L10.3985 11.5698C13.3718 13.2545 14.6281 13.2545 17.6015 11.5698L25.6666 7" stroke="#FDB022" stroke-width="1.75" stroke-linejoin="round"/>
<path d="M2.35171 15.7217C2.42798 19.2982 2.46611 21.0864 3.78577 22.4111C5.10541 23.7358 6.94203 23.7818 10.6153 23.8741C12.8792 23.9311 15.1208 23.9311 17.3847 23.8741C21.058 23.7818 22.8945 23.7358 24.2143 22.4111C25.5339 21.0864 25.572 19.2982 25.6482 15.7217C25.6728 14.5717 25.6728 13.4286 25.6482 12.2786C25.572 8.70217 25.5339 6.91394 24.2143 5.58927C22.8945 4.2646 21.058 4.21846 17.3847 4.12616C15.1208 4.06928 12.8792 4.06928 10.6153 4.12615C6.94203 4.21843 5.10541 4.26458 3.78575 5.58926C2.4661 6.91392 2.42798 8.70215 2.3517 12.2786C2.32718 13.4286 2.32719 14.5717 2.35171 15.7217Z" stroke="#FDB022" stroke-width="1.75" stroke-linejoin="round"/>
</svg>
