<svg width="28" height="28" viewBox="0 0 28 28" fill="none" xmlns="http://www.w3.org/2000/svg">
<path d="M14 23.9168C16.1113 23.9168 18.136 23.7082 20.0123 23.3258C22.356 22.848 23.5279 22.6091 24.5973 21.2342C25.6667 19.8593 25.6667 18.281 25.6667 15.1242V12.8761C25.6667 9.71935 25.6667 8.14101 24.5973 6.76609C23.5279 5.39119 22.356 5.15231 20.0123 4.67455C18.136 4.29206 16.1113 4.0835 14 4.0835C11.8887 4.0835 9.86404 4.29206 7.98766 4.67455C5.64394 5.15231 4.47208 5.39119 3.4027 6.76609C2.33334 8.14101 2.33334 9.71935 2.33334 12.8761V15.1242C2.33334 18.281 2.33334 19.8593 3.4027 21.2342C4.47208 22.6091 5.64394 22.848 7.98766 23.3258C9.86404 23.7082 11.8887 23.9168 14 23.9168Z" stroke="white" stroke-width="1.75"/>
<path d="M18.6224 14.3649C18.4493 15.0717 17.5281 15.5793 15.6857 16.5946C13.6817 17.6988 12.6798 18.2509 11.8683 18.0383C11.5934 17.9662 11.3402 17.8395 11.1277 17.6676C10.5 17.1602 10.5 16.1067 10.5 13.9998C10.5 11.893 10.5 10.8395 11.1277 10.332C11.3402 10.1602 11.5934 10.0335 11.8683 9.96146C12.6798 9.74875 13.6817 10.3009 15.6857 11.4051C17.5281 12.4204 18.4493 12.928 18.6224 13.6348C18.6814 13.8754 18.6814 14.1243 18.6224 14.3649Z" stroke="white" stroke-width="1.75" stroke-linejoin="round"/>
</svg>
