<svg width="28" height="28" viewBox="0 0 28 28" fill="none" xmlns="http://www.w3.org/2000/svg">
<path d="M2.91666 13.9998C2.91666 8.77511 2.91666 6.16274 4.53978 4.53962C6.1629 2.9165 8.77527 2.9165 14 2.9165C19.2247 2.9165 21.8371 2.9165 23.4603 4.53962C25.0833 6.16274 25.0833 8.77511 25.0833 13.9998C25.0833 19.2245 25.0833 21.8369 23.4603 23.4601C21.8371 25.0832 19.2247 25.0832 14 25.0832C8.77527 25.0832 6.1629 25.0832 4.53978 23.4601C2.91666 21.8369 2.91666 19.2245 2.91666 13.9998Z" stroke="white" stroke-width="1.75" stroke-linejoin="round"/>
<path d="M19.25 14C19.25 16.8995 16.8995 19.25 14 19.25C11.1005 19.25 8.75 16.8995 8.75 14C8.75 11.1005 11.1005 8.75 14 8.75C16.8995 8.75 19.25 11.1005 19.25 14Z" stroke="white" stroke-width="1.75"/>
<path d="M20.4258 7.5835H20.4153" stroke="white" stroke-width="2.33333" stroke-linecap="round" stroke-linejoin="round"/>
</svg>
