<svg width="28" height="28" viewBox="0 0 28 28" fill="none" xmlns="http://www.w3.org/2000/svg">
<path d="M10.6849 6.66427L10.2152 5.60729C9.90801 4.91619 9.75443 4.57063 9.52475 4.30618C9.2369 3.97476 8.86168 3.73093 8.44193 3.60249C8.10699 3.5 7.72884 3.5 6.97255 3.5C5.8662 3.5 5.31302 3.5 4.84865 3.71267C4.30165 3.96319 3.80765 4.50716 3.61082 5.0757C3.44373 5.55834 3.4916 6.05433 3.58731 7.04632C4.6062 17.6052 10.3951 23.3941 20.9539 24.413C21.946 24.5087 22.442 24.5566 22.9246 24.3895C23.4932 24.1927 24.0371 23.6986 24.2877 23.1517C24.5003 22.6872 24.5003 22.1341 24.5003 21.0278C24.5003 20.2714 24.5003 19.8933 24.3978 19.5583C24.2694 19.1386 24.0255 18.7634 23.6941 18.4756C23.4297 18.2458 23.0842 18.0923 22.393 17.7851L21.336 17.3153C20.5876 16.9827 20.2133 16.8164 19.8331 16.7803C19.4691 16.7456 19.1022 16.7967 18.7615 16.9294C18.4056 17.068 18.0911 17.3301 17.4618 17.8544C16.8355 18.3764 16.5224 18.6374 16.1397 18.7771C15.8004 18.901 15.352 18.947 14.9947 18.8943C14.5916 18.8349 14.2831 18.67 13.6658 18.3401C11.7454 17.3139 10.6864 16.2549 9.66015 14.3345C9.3303 13.7173 9.16538 13.4086 9.10598 13.0057C9.05333 12.6483 9.09923 12.1998 9.22315 11.8607C9.36294 11.478 9.62391 11.1648 10.1459 10.5385C10.6702 9.90929 10.9324 9.59469 11.071 9.23873C11.2036 8.8981 11.2547 8.53113 11.2201 8.16723C11.1839 7.78694 11.0176 7.41272 10.6849 6.66427Z" stroke="#FDB022" stroke-width="1.75" stroke-linecap="round"/>
</svg>
