<svg width="28" height="28" viewBox="0 0 28 28" fill="none" xmlns="http://www.w3.org/2000/svg">
<path fill-rule="evenodd" clip-rule="evenodd" d="M7.21212 12.0557C6.0714 12.0557 5.83333 12.2796 5.83333 13.352V15.2964C5.83333 16.369 6.0714 16.5927 7.21212 16.5927H9.96969V24.3705C9.96969 25.4429 10.2078 25.6668 11.3485 25.6668H14.106C15.2468 25.6668 15.4848 25.4429 15.4848 24.3705V16.5927H18.5811C19.4463 16.5927 19.6693 16.4346 19.9069 15.6526L20.4979 13.7081C20.9049 12.3685 20.6541 12.0557 19.1721 12.0557H15.4848V8.81498C15.4848 8.09906 16.1021 7.51868 16.8636 7.51868H20.7879C21.9285 7.51868 22.1667 7.29485 22.1667 6.22238V3.62979C22.1667 2.55732 21.9285 2.3335 20.7879 2.3335H16.8636C13.0562 2.3335 9.96969 5.23536 9.96969 8.81498V12.0557H7.21212Z" stroke="white" stroke-width="1.75" stroke-linejoin="round"/>
</svg>
