<svg width="28" height="28" viewBox="0 0 28 28" fill="none" xmlns="http://www.w3.org/2000/svg">
<path d="M13.983 17.9763L17.7646 22.2759C19.1656 23.8687 19.8662 24.6652 20.5995 24.4713C21.3327 24.2774 21.5843 23.2293 22.0871 21.1328L24.8767 9.50355C25.6513 6.2747 26.0385 4.66029 25.1776 3.864C24.3168 3.06771 22.8247 3.66012 19.8404 4.84495L5.99522 10.3419C3.60842 11.2895 2.41501 11.7634 2.33925 12.5776C2.33149 12.6609 2.33136 12.7448 2.33886 12.8281C2.41213 13.6426 3.60408 14.1205 5.98797 15.076C7.06811 15.509 7.60818 15.7255 7.9954 16.1401C8.03894 16.1867 8.0808 16.235 8.12091 16.2848C8.47768 16.7281 8.62994 17.3099 8.93443 18.4735L9.50429 20.6512C9.80058 21.7834 9.94874 22.3496 10.3368 22.4268C10.7248 22.5039 11.0626 22.0345 11.7383 21.0955L13.983 17.9763ZM13.983 17.9763L13.6122 17.5899C13.1902 17.1501 12.9793 16.9303 12.9793 16.6571C12.9793 16.3838 13.1902 16.1639 13.6122 15.7241L17.7807 11.3798" stroke="white" stroke-width="1.75" stroke-linecap="round" stroke-linejoin="round"/>
</svg>
